PathFileType	4	(X/Y/Z)	C:/Users/opensim2020/Desktop/walking_exp_matlab/subject02_walking08_straight_02.trc																																																																																																																									
DataRate	CameraRate	NumFrames	NumMarkers	Units	OrigDataRate	OrigDataStartFrame	OrigNumFrames																																																																																																																					
100	100	5	41	mm	100	1469	259																																																																																																																					
Frame#	Time	LFHD			RFHD			LBHD			RBHD			C7			T10			CLAV			STRN			RBAK			LSHO			LUPA			LELB			LFRM			LWRA			LWRB			LFIN			RSHO			RUPA			RELB			RFRM			RWRA			RWRB			RFIN			LASI			RASI			LPSI			RPSI			LTHI			LKNE			LTIB			LANK			LHEE			LTOE			RTHI			RKNE			RTIB			RANK			RHEE			RTOE			*39			*40		
		X1	Y1	Z1	X2	Y2	Z2	X3	Y3	Z3	X4	Y4	Z4	X5	Y5	Z5	X6	Y6	Z6	X7	Y7	Z7	X8	Y8	Z8	X9	Y9	Z9	X10	Y10	Z10	X11	Y11	Z11	X12	Y12	Z12	X13	Y13	Z13	X14	Y14	Z14	X15	Y15	Z15	X16	Y16	Z16	X17	Y17	Z17	X18	Y18	Z18	X19	Y19	Z19	X20	Y20	Z20	X21	Y21	Z21	X22	Y22	Z22	X23	Y23	Z23	X24	Y24	Z24	X25	Y25	Z25	X26	Y26	Z26	X27	Y27	Z27	X28	Y28	Z28	X29	Y29	Z29	X30	Y30	Z30	X31	Y31	Z31	X32	Y32	Z32	X33	Y33	Z33	X34	Y34	Z34	X35	Y35	Z35	X36	Y36	Z36	X37	Y37	Z37	X38	Y38	Z38	X39	Y39	Z39	X40	Y40	Z40	X41	Y41	Z41
																																																																																																																												
1	0	-998.60876	1744.19885	-1414.61609	-994.03412	1726.4906	-1272.7854	-1110.71301	1643.41333	-1421.58948	-1117.82288	1622.27844	-1280.53833	-1146.151	1517.00867	-1343.11096	-1203.21765	1243.93909	-1324.36548	-1007.99933	1446.85254	-1364.90503	-957.80725	1273.47192	-1352.26807	-1199.11157	1350.15466	-1265.83289	-1091.13245	1482.24219	-1528.51233	-1138.06458	1284.96484	-1603.57642	-1163.63098	1146.81262	-1610.41736	-1174.59534	1014.55792	-1622.7876	-1135.94678	882.32404	-1593.84241	-1182.58899	891.6095	-1625.38623	-1173.97607	824.44171	-1626.745	-1045.38464	1489.58252	-1165.14685	-1040.96106	1297.44958	-1073.34863	-1002.0105	1154.34546	-1058.46753	-947.22937	1046.1637	-1052.79297	-878.17279	934.396	-1087.56018	-915.42999	919.88727	-1046.95056	-863.98273	868.95386	-1054.5144	-971.94165	986.08551	-1475.30786	-961.63959	962.48846	-1216.84106	-1180.95288	1023.00397	-1383.25586	-1179.1864	1021.89203	-1269.1792	-984.13409	687.99371	-1560.34595	-939.16644	492.42441	-1543.03796	-929.763	300.22964	-1560.09949	-846.40601	89.86353	-1559.12427	-864.20337	49.18402	-1506.42725	-690.96368	94.48995	-1582.60498	-1082.66687	662.28363	-1164.45776	-1131.47266	457.33374	-1208.56165	-1219.7749	289.90936	-1198.09143	-1291.9447	108.58298	-1233.76721	-1343.84167	59.59853	-1284.11963	-1148.09607	41.71812	-1240.79578	-1110.78687	1787.04309	-1323.2019	-2845.80054	1034.12622	3357.52563
2	0.01	-991.29431	1743.60815	-1417.52014	-986.62396	1725.59814	-1275.31335	-1103.01624	1642.50635	-1424.69739	-1110.22644	1620.94287	-1283.67871	-1138.57581	1515.95776	-1346.64587	-1195.14648	1242.61938	-1328.03821	-1000.33832	1446.00647	-1368.04456	-949.57452	1272.6676	-1354.82935	-1191.52258	1348.98413	-1269.43237	-1083.14844	1480.98059	-1532.21814	-1128.83984	1283.30444	-1606.9325	-1153.71252	1145.03381	-1613.43591	-1165.03625	1013.05994	-1626.60608	-1126.58252	880.49506	-1598.67444	-1173.47705	890.30865	-1629.79968	-1164.90857	823.05255	-1631.57141	-1038.21838	1488.79907	-1168.36902	-1034.22534	1296.59497	-1077.0061	-995.56641	1153.23828	-1062.23914	-941.15845	1044.7229	-1056.17102	-872.67419	932.92712	-1091.26904	-910.15637	918.43597	-1050.37793	-858.54163	867.44556	-1058.0188	-962.63086	985.30957	-1478.76697	-952.9491	961.80463	-1219.94666	-1172.11829	1021.96765	-1387.31152	-1170.9812	1020.8653	-1273.33386	-974.50989	686.83954	-1562.9502	-931.27179	490.81808	-1544.96619	-924.04291	298.24344	-1561.02148	-843.57428	87.06564	-1558.6377	-861.56262	46.44355	-1505.5813	-688.13715	89.67867	-1582.22998	-1076.96204	662.15784	-1166.95923	-1126.72217	457.26636	-1209.91882	-1217.0387	291.02771	-1198.7428	-1291.24731	110.18403	-1233.63391	-1343.44104	61.63505	-1283.81152	-1147.92981	41.64684	-1240.59644	-1103.47302	1785.78308	-1325.76843	-2845.97705	1034.02051	3357.46045
3	0.02	-983.79279	1742.95435	-1420.16089	-979.57782	1724.55225	-1278.17505	-1095.33557	1641.65784	-1427.86169	-1102.87	1619.78101	-1287.02271	-1131.08447	1514.8584	-1350.28735	-1186.99988	1241.25671	-1331.81946	-992.63812	1445.23853	-1371.31775	-941.22858	1272.07678	-1357.80359	-1183.57458	1347.58142	-1272.8938	-1074.9967	1479.63843	-1535.70093	-1119.31689	1281.34082	-1609.94543	-1143.85144	1143.4585	-1616.86877	-1155.26563	1011.58795	-1630.33447	-1116.99536	878.7807	-1603.25037	-1163.81006	888.75439	-1634.05823	-1155.43347	821.60272	-1636.29907	-1031.14478	1488.02112	-1171.72339	-1027.39075	1295.54053	-1080.23792	-989.2215	1152.24768	-1066.00269	-935.18127	1043.75098	-1059.90588	-867.11029	931.18054	-1094.42285	-904.88184	917.06665	-1053.93201	-854.0163	865.7016	-1061.23828	-953.13843	984.57263	-1482.31616	-945.04358	960.66821	-1223.00708	-1163.1698	1020.97595	-1391.38538	-1162.51758	1019.92322	-1277.61719	-964.71436	685.71173	-1565.63623	-923.52893	489.08124	-1546.64087	-918.98767	296.14297	-1561.76636	-841.5304	83.71432	-1557.77087	-861.37891	44.15152	-1505.49329	-686.64276	84.46402	-1581.92822	-1070.77295	661.88879	-1169.10071	-1121.82849	457.17978	-1211.10315	-1214.05554	292.07004	-1199.36316	-1290.29382	111.89145	-1233.42896	-1343.02417	63.85408	-1283.41943	-1147.6759	41.41444	-1240.29236	-1096.36206	1784.8656	-1328.79639	-2845.25269	1033.99011	3360.31592
4	0.03	-976.33606	1742.30078	-1422.87329	-972.19507	1723.34338	-1280.79822	-1087.67529	1640.8385	-1431.08801	-1095.48621	1618.60791	-1290.39929	-1123.57129	1513.68652	-1354.01074	-1178.64453	1239.79346	-1335.85168	-984.8645	1444.45288	-1374.63086	-932.83112	1271.69836	-1361.16284	-1175.5282	1346.22241	-1276.55908	-1066.92029	1478.37939	-1539.32593	-1110.07019	1279.79492	-1613.46143	-1133.77637	1141.69617	-1620.08313	-1145.24512	1010.12317	-1634.1748	-1107.1521	877.32117	-1607.58521	-1153.8927	887.43323	-1638.38	-1145.65479	820.35242	-1641.27124	-1023.98291	1487.24426	-1175.08606	-1020.41241	1294.78638	-1083.75073	-982.96216	1151.22705	-1069.86145	-929.62225	1042.39661	-1063.54675	-861.87286	929.58978	-1097.73853	-899.8172	915.68951	-1057.40979	-849.23486	863.90869	-1064.76917	-943.47076	983.84155	-1486.04431	-936.37012	959.61749	-1226.12268	-1153.96301	1019.98761	-1395.70569	-1153.8418	1018.9209	-1282.04736	-954.77924	684.51141	-1568.33289	-915.92212	487.34003	-1548.69519	-914.56049	293.99295	-1562.53247	-840.78387	80.42889	-1557.02063	-860.78027	41.19315	-1504.17432	-685.93909	78.34856	-1581.20679	-1064.22461	661.63196	-1171.57617	-1116.48035	457.05658	-1212.45581	-1210.72778	293.07162	-1200.0575	-1289.19922	113.7606	-1233.0658	-1342.45386	66.27986	-1283.05725	-1147.56799	41.52212	-1240.13013	-1089.11914	1783.63977	-1331.54382	-2845.16553	1034.01929	3360.30835
5	0.04	-968.79034	1741.55908	-1425.53699	-964.92181	1722.18848	-1283.70142	-1080.0033	1639.97424	-1434.39526	-1087.91846	1617.21692	-1293.6908	-1116.12122	1512.42407	-1357.83337	-1170.18018	1238.22437	-1339.90112	-977.10199	1443.70679	-1378.03162	-924.25092	1271.07092	-1364.11841	-1167.8717	1344.60693	-1280.58484	-1058.82239	1477.1394	-1543.02417	-1100.60596	1278.09229	-1616.9624	-1123.69373	1140.1958	-1623.76709	-1135.005	1008.68976	-1638.03809	-1096.87805	875.85077	-1612.20837	-1143.72839	886.1795	-1642.83069	-1135.41821	819.08417	-1646.10718	-1016.92664	1486.45715	-1178.67407	-1013.63007	1293.8999	-1087.44983	-976.71912	1150.24231	-1073.73083	-924.31476	1041.01514	-1067.07422	-856.64771	928.17828	-1101.21423	-894.54498	914.26587	-1060.53857	-844.38715	862.02368	-1068.05762	-933.78418	983.10852	-1489.68542	-927.76697	958.84558	-1229.74097	-1144.51709	1018.97723	-1400.23279	-1144.92188	1017.94751	-1286.59497	-944.68542	683.20972	-1570.974	-908.6095	485.38797	-1550.61987	-910.69739	291.74628	-1563.35254	-841.13892	76.91702	-1556.33154	-861.37738	37.67897	-1503.27063	-686.26538	72.19078	-1580.60059	-1057.4563	661.33704	-1174.03735	-1111.22656	457.08109	-1213.88342	-1207.40356	294.40402	-1200.86865	-1288.08386	115.7944	-1232.927	-1341.77429	68.9853	-1282.86401	-1147.31543	41.33198	-1239.87256	-1081.87573	1782.53333	-1334.49695	-2845.22754	1034.15955	3360.35596
